<?xml version="1.0" encoding="utf-8"?>
<!-- Generator: Adobe Illustrator 16.0.0, SVG Export Plug-In . SVG Version: 6.00 Build 0)  -->
<!DOCTYPE svg PUBLIC "-//W3C//DTD SVG 1.1//EN" "http://www.w3.org/Graphics/SVG/1.1/DTD/svg11.dtd">
<svg version="1.1" id="Layer_1" xmlns="http://www.w3.org/2000/svg" xmlns:xlink="http://www.w3.org/1999/xlink" x="0px" y="0px"
	 width="160.243px" height="160.239px" viewBox="0.001 -0.001 160.243 160.239"
	 enable-background="new 0.001 -0.001 160.243 160.239" xml:space="preserve">
<g>
	<g>
		<g>
			<path fill="#1795A6" d="M105.938,137.496c11.273-11.384,22.378-22.592,33.466-33.789c-3.472-3.472-7.085-7.08-10.601-10.596
				c4.638-4.638,9.073-9.073,13.579-13.574c0.126,0.121,0.433,0.396,0.729,0.69c4.118,4.116,8.241,8.234,12.364,12.357
				c6.285,6.291,6.391,15.896,0.12,22.203c-12.823,12.879-25.681,25.735-38.569,38.56c-6.292,6.27-15.929,6.215-22.221-0.061
				c-10.742-10.716-21.469-21.438-32.18-32.18c-6.203-6.221-6.171-15.924,0.017-22.133c0.788-0.794,1.556-1.609,2.347-2.432
				C78.659,110.216,92.259,123.818,105.938,137.496z"/>
			<path fill="#A32986" d="M63.866,65.065C50.123,78.802,36.516,92.416,22.97,105.957c11.225,11.226,22.379,22.391,33.563,33.565
				c3.524-3.543,7.132-7.168,10.639-10.688c4.604,4.604,9.043,9.04,13.541,13.535c-0.126,0.138-0.369,0.422-0.633,0.686
				c-4.172,4.178-8.348,8.354-12.525,12.527c-6.206,6.204-15.906,6.209-22.107,0.011c-12.884-12.878-25.765-25.763-38.646-38.646
				c-6.022-6.022-6.189-15.688-0.18-21.765C17.501,84.176,28.447,73.23,39.45,62.345c6.079-6.008,15.562-5.739,21.957,0.427
				C62.179,63.527,62.982,64.244,63.866,65.065z"/>
			<path fill="#065A9D" d="M95.172,63.603C81.543,49.974,67.959,36.39,54.467,22.898C43.141,34.221,31.944,45.424,20.771,56.594
				c3.463,3.462,7.079,7.074,10.599,10.591c-4.577,4.578-9.014,9.013-13.527,13.523c-0.112-0.108-0.396-0.351-0.657-0.612
				c-4.123-4.117-8.246-8.235-12.363-12.358c-6.432-6.444-6.426-16.01,0.009-22.444C17.604,32.519,30.376,19.744,43.15,6.976
				c6.322-6.324,15.933-6.319,22.268,0.021c10.727,10.721,21.45,21.453,32.177,32.174c5.996,6.001,6.172,15.387,0.389,21.606
				C97.073,61.763,96.092,62.683,95.172,63.603z"/>
			<path fill="#E32234" d="M96.514,95.125c13.688-13.683,27.269-27.268,40.809-40.809c-11.252-11.247-22.442-22.439-33.625-33.62
				c-3.516,3.537-7.122,7.162-10.665,10.716c-4.595-4.61-9.023-9.057-13.518-13.563c0.109-0.115,0.361-0.405,0.63-0.668
				c4.12-4.13,8.238-8.247,12.361-12.37c6.395-6.379,15.972-6.435,22.361-0.061c12.852,12.813,25.681,25.637,38.487,38.482
				c6.215,6.236,6.16,15.885-0.061,22.109c-10.732,10.728-21.453,21.453-32.187,32.176c-6.258,6.264-15.905,6.253-22.187-0.022
				C98.14,96.713,97.346,95.942,96.514,95.125z"/>
			<path fill="#A32986" d="M66.885,95c4.419-4.424,8.862-8.858,13.55-13.546c0.153,0.252,0.304,0.641,0.572,0.909
				c6.1,6.127,12.199,12.254,18.332,18.337c3.712,3.675,5.48,8.038,4.981,13.257c-0.316,3.417-1.729,6.368-4.034,8.881
				c-0.903,0.986-1.885,1.911-2.766,2.798C87.25,115.358,77.054,105.163,66.885,95z"/>
			<path fill="#065A9D" d="M65.331,66.965c4.348,4.261,8.826,8.662,13.272,13.021c-0.063,0.187-0.065,0.273-0.109,0.316
				c-6.663,6.658-13.253,13.395-20.021,19.942c-5.911,5.717-15.294,5.563-21.265-0.132c-0.894-0.843-1.75-1.735-2.521-2.508
				C44.951,87.345,55.173,77.123,65.331,66.965z"/>
			<path fill="#E32234" d="M79.978,78.458c-6.658-6.631-13.456-13.371-20.199-20.161c-1.709-1.725-2.822-3.859-3.41-6.221
				c-1.355-5.437-0.27-10.315,3.469-14.537c0.914-1.029,1.939-1.966,3.065-3.1c10.211,10.272,20.38,20.502,30.457,30.643
				C88.892,69.549,84.457,73.985,79.978,78.458z"/>
			<path fill="#1795A6" d="M125.644,62.667c-10.315,10.316-20.517,20.519-30.674,30.669c-4.375-4.386-8.805-8.832-13.538-13.567
				c0.278-0.17,0.717-0.317,1.01-0.613c6.209-6.177,12.396-12.375,18.596-18.563c6.438-6.449,15.993-6.438,22.438,0
				C124.182,61.292,124.921,61.971,125.644,62.667z"/>
		</g>
	</g>
</g>
</svg>
