<?xml version="1.0" encoding="utf-8"?>
<!-- Generator: Adobe Illustrator 16.0.0, SVG Export Plug-In . SVG Version: 6.00 Build 0)  -->
<!DOCTYPE svg PUBLIC "-//W3C//DTD SVG 1.1//EN" "http://www.w3.org/Graphics/SVG/1.1/DTD/svg11.dtd">
<svg version="1.1" id="Layer_1" xmlns="http://www.w3.org/2000/svg" xmlns:xlink="http://www.w3.org/1999/xlink" x="0px" y="0px"
	 width="1163.072px" height="359.477px" viewBox="13.738 241.218 1163.072 359.477"
	 enable-background="new 13.738 241.218 1163.072 359.477" xml:space="preserve">
<title>niras_logo_new</title>
<path id="niras" fill="#B60D18" d="M182.749,508.519L85.948,407.117h-72.21v190.51H72.12l6.137-115.23l113.697,115.23h56.85v-190.51
	h-59.917L182.749,508.519z M305.651,407.117h62.962v190.51h-62.962V407.117z M639.051,463.964
	c-3.067-49.154-56.85-58.383-99.868-59.916c-35.328,0-116.766,3.068-116.766,3.068v190.51h56.849l9.158-152.092
	c0,0,23.056-1.535,38.418-1.535c24.589,0,41.485,9.158,43.02,24.59c1.534,15.434-4.579,33.793-59.916,33.793v30.727l61.45,66.076
	h66.076l-49.064-69.168c1.533-1.533,53.78-15.361,50.689-66.074 M858.89,407.093h-93.849c0,0-9.157,13.736-39.951,75.279
	c-41.486-33.793-52.246-78.348-55.314-99.869h-1.534v81.439c5.495,24.393,17.736,46.748,35.327,64.518
	c-27.634,56.871-32.259,67.633-32.259,67.633h61.45l19.965-36.885l0,0c19.319,6.574,39.518,10.201,59.917,10.762v-52.248
	c-11.49-0.506-22.858-2.57-33.794-6.135l30.726-55.314l79.882,141.354h61.45c0,0-7.624-18.453-47.599-99.982
	c-35.328-76.813-44.555-90.643-44.555-90.643 M1072.319,473.078c-19.965-1.535-30.725-6.137-30.725-15.363
	c0-12.295,15.361-16.895,47.621-16.895s75.278,6.135,75.278,6.135v-44.463c-32.125-3.719-64.467-5.248-96.801-4.578
	c-16.896,0-98.334,0-98.334,64.52c0,61.449,79.881,62.984,113.697,64.52c12.295,0,26.123,3.066,26.123,12.293
	c1.534,15.363-23.056,16.896-59.917,16.896c-24.337-0.346-48.559-3.418-72.211-9.156v47.621c0,0,50.713,6.066,89.107,6.066
	c16.896,0,112.188,3.068,110.629-64.52c1.534-67.609-75.278-61.449-104.471-62.984 M709.751,388.664
	c7.692-41.486,49.155-86.041,104.471-89.109v-58.336c-79.904,9.158-110.652,78.324-109.05,118.254
	C706.705,368.63,706.705,379.437,709.751,388.664z"/>
</svg>
